<svg width="13" height="12" viewBox="0 0 13 12" fill="none" xmlns="http://www.w3.org/2000/svg">
<path d="M5.71944 0.450185C5.88097 0.172855 6.28162 0.172855 6.44315 0.450185L8.15446 3.38831C8.21363 3.4899 8.31278 3.56194 8.42768 3.58682L11.7508 4.30644C12.0645 4.37436 12.1883 4.7554 11.9745 4.99472L9.70896 7.5302C9.63063 7.61787 9.59276 7.73443 9.6046 7.8514L9.94711 11.2343C9.97944 11.5536 9.65531 11.7891 9.36162 11.6597L6.25016 10.2885C6.14258 10.2411 6.02002 10.2411 5.91244 10.2885L2.80098 11.6597C2.50729 11.7891 2.18315 11.5536 2.21548 11.2343L2.558 7.8514C2.56984 7.73443 2.53197 7.61787 2.45363 7.5302L0.188133 4.99472C-0.0257075 4.7554 0.0980992 4.37436 0.411771 4.30644L3.73491 3.58682C3.84982 3.56194 3.94897 3.4899 4.00814 3.38831L5.71944 0.450185Z" fill="#AEB9E1"/>
</svg>
