<svg width="15" height="10" viewBox="0 0 15 10" fill="none" xmlns="http://www.w3.org/2000/svg">
<path fill-rule="evenodd" clip-rule="evenodd" d="M0.454134 4.20133C1.08136 3.09476 3.19375 0.0297852 7.34946 0.0297852C11.5052 0.0297852 13.6176 3.09476 14.2448 4.20133C14.3843 4.44748 14.3843 4.74014 14.2448 4.9863C13.6176 6.09286 11.5052 9.15784 7.34946 9.15784C3.19375 9.15784 1.08136 6.09286 0.454134 4.9863C0.314605 4.74014 0.314605 4.44748 0.454134 4.20133ZM9.88634 4.59418C9.88634 5.99453 8.75113 7.12975 7.35077 7.12975C5.95042 7.12975 4.8152 5.99453 4.8152 4.59418C4.8152 3.19382 5.95042 2.05861 7.35077 2.05861C8.75113 2.05861 9.88634 3.19382 9.88634 4.59418Z" fill="#AEB9E1"/>
</svg>
